<svg t="1693992758841" class="icon" viewBox="0 0 1024 1024" version="1.1" xmlns="http://www.w3.org/2000/svg" p-id="1050" width="40" height="40"><path d="M512 56.88888853c251.22133333 0 455.11111147 203.88977813 455.11111147 455.11111147s-203.88977813 455.11111147-455.11111147 455.11111147S56.88888853 763.22133333 56.88888853 512 260.77866667 56.88888853 512 56.88888853z m0 91.02222294c-200.9315552 0-364.08888853 163.15733333-364.08888853 364.08888853s163.15733333 364.08888853 364.08888853 364.08888853 364.08888853-163.15733333 364.08888853-364.08888853-163.15733333-364.08888853-364.08888853-364.08888853z m0 637.1555552c-89.61137813 0-172.2140448-37.18257813-227.5555552-99.3052448 27.89831147-42.32533333 130.0707552-82.7392 227.5555552-82.7392s199.6572448 40.41386667 227.5555552 82.7392C684.2140448 747.88408853 601.61137813 785.06666667 512 785.06666667z m0-500.62222187c75.5484448 0 136.53333333 60.98488853 136.53333333 136.53333333s-60.98488853 136.53333333-136.53333333 136.53333334-136.53333333-60.98488853-136.53333333-136.53333334 60.98488853-136.53333333 136.53333333-136.53333333z" fill="#ffffff" p-id="1051"></path></svg>