<svg t="1708846598534" class="icon" viewBox="0 0 1024 1024" version="1.1" xmlns="http://www.w3.org/2000/svg" p-id="1466" width="35" height="35"><path d="M162.304 512h-76.8c-28.16 0-51.2-23.04-51.2-51.2V204.8c0-84.48 69.12-153.6 153.6-153.6h25.6v409.6c0 28.16-23.04 51.2-51.2 51.2z m0-406.528c-44.032 11.264-76.8 51.712-76.8 99.328v256h76.8V105.472z" fill="#C46023" p-id="1467"></path><path d="M341.504 256h-179.2V81.92c0-16.896 13.824-30.72 30.72-30.72h148.48v204.8z m-128-51.2h76.8V102.4h-76.8v102.4z" fill="#C46023" p-id="1468"></path><path d="M395.264 281.6h-71.68c-3.072 0-5.12-2.048-5.12-5.12V30.72c0-3.072 2.048-5.12 5.12-5.12h71.68c70.656 0 128 57.344 128 128S465.92 281.6 395.264 281.6z" fill="#DCDDDD" p-id="1469"></path><path d="M395.264 307.2h-71.68c-16.896 0-30.72-13.824-30.72-30.72V30.72c0-16.896 13.824-30.72 30.72-30.72h71.68c84.48 0 153.6 69.12 153.6 153.6s-69.12 153.6-153.6 153.6z m-51.2-51.2h51.2c56.32 0 102.4-46.08 102.4-102.4s-46.08-102.4-102.4-102.4h-51.2v204.8zM123.904 1024c-14.336 0-25.6-11.264-25.6-25.6V491.52c0-14.336 11.264-25.6 25.6-25.6s25.6 11.264 25.6 25.6v506.88c0 13.824-11.776 25.6-25.6 25.6z" fill="#C46023" p-id="1470"></path><path d="M863.744 778.24h76.8c14.336 0 25.6-11.264 25.6-25.6V496.64c0-70.656-57.344-128-128-128v384c0 14.336 11.264 25.6 25.6 25.6z" fill="#DCDDDD" p-id="1471"></path><path d="M940.544 803.84h-76.8c-28.16 0-51.2-23.04-51.2-51.2V343.04h25.6c84.48 0 153.6 69.12 153.6 153.6v256c0 28.16-23.04 51.2-51.2 51.2z m-76.8-406.528V752.64h76.8V496.64c0-47.616-32.768-87.552-76.8-99.328z" fill="#C46023" p-id="1472"></path><path d="M863.744 547.84h-179.2V343.04h148.48c16.896 0 30.72 13.824 30.72 30.72v174.08z m-128-51.2h76.8V394.24h-76.8v102.4z" fill="#C46023" p-id="1473"></path><path d="M702.464 599.04h-71.68c-84.48 0-153.6-69.12-153.6-153.6s69.12-153.6 153.6-153.6h71.68c16.896 0 30.72 13.824 30.72 30.72v245.76c0 16.896-13.824 30.72-30.72 30.72z m-71.68-256c-56.32 0-102.4 46.08-102.4 102.4s46.08 102.4 102.4 102.4h51.2V343.04h-51.2zM902.144 1024c-14.336 0-25.6-11.264-25.6-25.6v-215.04c0-14.336 11.264-25.6 25.6-25.6s25.6 11.264 25.6 25.6v215.04c0 13.824-11.776 25.6-25.6 25.6z" fill="#C46023" p-id="1474"></path></svg>