<svg t="1711899391249" class="icon" viewBox="0 0 1024 1024" version="1.1" xmlns="http://www.w3.org/2000/svg" p-id="1851" width="25" height="25"><path d="M448.649 186.13l-79.02 115.301a25.6 25.6 0 0 1-13.891 10.104L221.662 351.06a76.8 76.8 0 0 0-39.151 120.491l85.23 110.797a25.6 25.6 0 0 1 5.292 16.316l-3.823 139.741a76.8 76.8 0 0 0 102.502 74.48l131.72-46.866a25.6 25.6 0 0 1 17.135 0l131.755 46.865a76.8 76.8 0 0 0 102.468-74.479l-3.823-139.741a25.6 25.6 0 0 1 5.291-16.316l85.231-110.797a76.8 76.8 0 0 0-39.15-120.49l-134.077-39.527a25.6 25.6 0 0 1-13.892-10.104L575.351 186.13a76.8 76.8 0 0 0-126.702 0z" fill="#9aceff" p-id="1852"></path></svg>