<svg t="1712134819953" class="icon" viewBox="0 0 1024 1024" version="1.1" xmlns="http://www.w3.org/2000/svg" p-id="2035" width="20" height="20"><path d="M932.9 401.3c-24.4-22.4-55.2-23.3-65-22.3H711.1c24.9-115 18.5-201.5-19-256.6-32.3-47.5-75.9-53.7-80.7-54.3-1.4-0.2-2.8-0.3-4.3-0.3-30.4 0-82.1 10.4-86.6 80 0 0.4 0 0.7-0.1 1-0.9 3.3-1.4 6.7-1.4 10.2 0 123.2-137 226.2-138.3 227.2-9.7 7.2-15.7 18.6-15.7 30.8v410.2c0 63.7 69.2 93.8 115.6 93.8h310.5c50 0 77.6-65.1 89.6-103.8 0.1-0.2 0.1-0.5 0.2-0.7 76.2-259 78.4-341.2 78.4-349.7 0-34.1-14.4-54.5-26.4-65.5zM322 448.5c0-25-10.8-40.7-19.8-49.5-19.2-19-44.5-20-50.4-20H128.2c-41.1 0-63.8 32.3-64.2 62.7 0 1 0 1.9 0.1 2.9l25.5 412.9c0.7 41.1 33.7 63.5 64.7 63.5h107.1c22.6 0 36.8-9.6 44.6-17.5 15.1-15.2 16.1-33.8 16.1-38.7V448.5z" fill="#68B2A0" p-id="2036"></path></svg>