<svg t="1711345650570" class="icon" viewBox="0 0 1024 1024" version="1.1" xmlns="http://www.w3.org/2000/svg" p-id="1754" width="30" height="30"><path d="M876.98341484 56.32252839H147.0178797C96.91924859 56.32252839 56.32252839 97.2506504 56.32252839 147.01658516v729.91245907C56.32252839 927.08075141 97.2506504 967.67747161 147.01658516 967.67747161h729.91245907c50.09604204 0 90.69276223-40.92812199 90.69276222-90.69405677V147.0178797C967.67747161 96.91924859 926.7493496 56.32252839 876.98341484 56.32252839z m7.40216983 828.50449383c0-0.38706693-745.2126069-0.44143755-745.21260689-0.44143755 0.38706693 0 0.44143755-745.2126069 0.44143755-745.21260689 0 0.38706693 745.2126069 0.44143755 745.21260689 0.44143755-0.38706693 0-0.44143755 745.2126069-0.44143755 745.21260689z" fill="#dbeeff" p-id="1755"></path><path d="M760.10991059 731.38798996l0.44143756 0.22007151V301.83688976c-1.49130809-24.08100093-18.06139796-36.89563529-49.65460449-38.38694336H444.3940333c-16.57008987 1.49130809-25.57360355 12.04050046-27.12057679 31.59320651 1.49260263 19.55270605 10.55048691 30.10319297 27.12057679 31.59450105h246.12149982c4.52829488 0 6.79373685 2.26414743 6.79373684 6.79373686V699.24201561l0.60713846 0.3314018h-85.17026197c-8.67211188 0-22.75668827 11.26766112-23.86092942 29.32905907 1.10424115 19.55270605 13.09037101 30.10189843 23.86092942 31.59320653h128.08679474c11.37899141-1.37997779 17.78566131-11.10196021 19.27567486-29.10769305zM466.98502068 416.99771986c-15.07878178-1.49130809-23.30945612-12.04050046-24.85513481-31.59320653 1.49130809-18.06139796 9.77635303-27.83775099 24.85513481-29.32905907h185.14227452c18.06139796 1.49130809 27.83775099 11.26766112 29.32905909 29.32905907-1.49130809 19.55270605-10.54919237 30.10189843-27.11928226 31.59320653H466.98502068zM282.5042552 324.42658259c-8.83781278-1.49130809-28.50055458-12.04050046-29.38472421-31.64887166 0.88416963-18.06139796 17.34422377-27.83775099 26.23640714-29.32905908h72.7983597c10.65922813 1.49130809 25.90371082 11.26766112 26.78788046 29.32905908-0.8285045 19.6083712-17.01152743 30.15756357-26.78788046 31.64887166H282.5042552z m87.38003881 373.48982583v-265.12143802c1.49130809-33.14017975-11.26766112-48.93743028-38.38823791-47.44482766H277.31315675c-16.57008987 1.5456787-25.57230901 12.09487107-27.11928226 31.64757712 1.49130809 21.09967929 10.55048691 32.36734041 27.1205768 33.85864849h22.58969283c4.52958942 0 6.79373685 2.26544197 6.79373685 6.79373686v267.55128635a12.92596464 12.92596464 0 0 0-0.1657009 2.09974108c0.1657009 3.92115643 1.10424115 7.45654045 2.54117863 10.65922813 3.75545552 12.31753165 10.21779058 18.72420157 24.74380452 22.31525073 2.43114288 0.38577241 4.80532606-0.11133029 7.1808038-1.38127233h63.62914512c9.38928608-1.49130809 26.89921075-12.04050046 27.78208584-31.59320653-0.8285045-18.06139796-17.50863013-27.83775099-27.78208584-29.32905907h-34.74152361z m126.48415636-28.00345189c-31.59320652 0-47.44482765-15.07878178-47.44482765-45.18068023V493.77290114c0-30.10189843 13.53180855-45.18068021 40.65109079-45.18068022H622.79953067c31.59450107 0 46.67328285 12.81333982 45.18197475 38.38694337v137.75181748c0 30.10319297-13.53310309 45.18197475-40.65238533 45.18197476H496.36845037z m15.79725053-65.50752017c1.49130809 3.03828133 3.75545552 5.24805815 6.79373685 6.79373686h79.0393287c4.52958942 0 6.79373685-2.26414743 6.79373686-6.79373686v-88.04154785c0-4.52958942-2.26544197-6.79373685-6.79373686-6.79373685h-79.09499384c-4.52829488 0-6.79373685 2.26414743-6.79373686 6.79373685v88.04154785z" fill="#dbeeff" p-id="1756"></path></svg>