<svg height="1024" node-id="1" sillyvg="true" template-height="1024" template-width="1024" version="1.1" viewBox="0 0 1024 1024" width="1024" xmlns="http://www.w3.org/2000/svg" xmlns:xlink="http://www.w3.org/1999/xlink"><defs node-id="52"><linearGradient gradientUnits="objectBoundingBox" id="linear-gradient" node-id="3" spreadMethod="pad" x1="0.5" x2="0.5" y1="0" y2="1"><stop offset="0" stop-color="#e1e1e1"/><stop offset="1" stop-color="#ffffff" stop-opacity="0"/></linearGradient><linearGradient gradientUnits="objectBoundingBox" id="linear-gradient-2" node-id="6" spreadMethod="pad" x1="0.5" x2="0.5" y1="0" y2="1"><stop offset="0" stop-color="#e2e2e2"/><stop offset="1" stop-color="#bcbcbc"/></linearGradient><linearGradient gradientUnits="objectBoundingBox" id="linear-gradient-5" node-id="9" spreadMethod="pad" x1="0" x2="1" y1="0.272" y2="0.354"><stop offset="0" stop-color="#bebbbb"/><stop offset="1" stop-color="#dfdfdf"/></linearGradient><linearGradient gradientUnits="objectBoundingBox" id="linear-gradient-6" node-id="12" spreadMethod="pad" x1="0" x2="1" y1="0.245" y2="0.556"><stop offset="0" stop-color="#ececec"/><stop offset="1" stop-color="#c9c6c6"/></linearGradient><linearGradient gradientUnits="objectBoundingBox" id="linear-gradient-7" node-id="15" spreadMethod="pad" x1="0" x2="1" y1="0.536" y2="0.425"><stop offset="0" stop-color="#bcbbbb"/><stop offset="1" stop-color="#dbdada"/></linearGradient><linearGradient gradientUnits="objectBoundingBox" id="linear-gradient-8" node-id="18" spreadMethod="pad" x1="0.522" x2="0.346" y1="0.174" y2="0.835"><stop offset="0" stop-color="#fefefe"/><stop offset="1" stop-color="#c4bfbf"/></linearGradient><linearGradient gradientUnits="objectBoundingBox" id="linear-gradient-9" node-id="21" spreadMethod="pad" x1="0.385" x2="0.623" y1="0.14" y2="0.885"><stop offset="0" stop-color="#ffffff"/><stop offset="1" stop-color="#c7c7c7"/></linearGradient><linearGradient gradientUnits="objectBoundingBox" id="linear-gradient-10" node-id="24" spreadMethod="pad" x1="0.5" x2="0.5" y1="0" y2="1"><stop offset="0" stop-color="#e1e1e1"/><stop offset="1" stop-color="#b1aeae"/></linearGradient><clipPath id="clip-暂无数据" node-id="27"><path d="M 0.00 0.00 L 1024.00 0.00 L 1024.00 1024.00 L 0.00 1024.00 Z" fill="#000000" fill-rule="nonzero" node-id="103" stroke="none" target-height="1024" target-width="1024" target-x="0" target-y="0"/></clipPath></defs><g clip-path="url(#clip-暂无数据)" id="暂无数据" node-id="29"><path d="M 0.00 0.49 L 1024.00 0.49 L 1024.00 1024.49 L 0.00 1024.49 Z" fill="#ffffff" fill-rule="nonzero" hidden="true" node-id="108" stroke="none" target-height="1024" target-width="1024" target-x="0" target-y="0.48797607" visibility="hidden"/><path d="M 1024.00 798.08 L 1023.72 805.50 L 1022.89 812.89 L 1021.53 820.25 L 1019.62 827.60 L 1017.14 834.97 L 1014.07 842.36 L 1010.64 849.36 L 1006.67 856.35 L 1002.16 863.36 L 997.07 870.39 L 991.37 877.45 L 985.03 884.54 L 977.31 892.34 L 968.80 900.13 L 959.44 907.90 L 949.18 915.67 L 937.98 923.42 L 926.90 930.46 L 915.00 937.43 L 902.26 944.32 L 888.62 951.12 L 874.04 957.83 L 859.61 963.95 L 844.56 969.86 L 828.88 975.53 L 812.55 980.98 L 796.26 985.98 L 779.45 990.73 L 762.11 995.21 L 744.23 999.43 L 726.40 1003.24 L 708.17 1006.76 L 689.52 1009.99 L 670.45 1012.91 L 651.43 1015.46 L 632.11 1017.70 L 612.50 1019.61 L 592.58 1021.19 L 566.04 1022.74 L 539.18 1023.68 L 512.00 1024.00 L 484.81 1023.68 L 457.96 1022.74 L 431.42 1021.19 L 411.50 1019.61 L 391.89 1017.70 L 372.57 1015.46 L 353.55 1012.91 L 334.48 1009.99 L 315.83 1006.76 L 297.60 1003.24 L 279.77 999.43 L 261.89 995.21 L 244.55 990.73 L 227.74 985.98 L 211.45 980.98 L 195.12 975.53 L 179.44 969.86 L 164.39 963.95 L 149.96 957.83 L 135.38 951.12 L 121.74 944.32 L 109.00 937.43 L 97.10 930.46 L 86.02 923.42 L 74.82 915.67 L 64.56 907.90 L 55.20 900.13 L 46.69 892.34 L 38.97 884.54 L 32.63 877.45 L 26.93 870.39 L 21.84 863.36 L 17.33 856.35 L 13.36 849.36 L 9.93 842.36 L 6.86 834.97 L 4.38 827.60 L 2.47 820.25 L 1.11 812.89 L 0.28 805.50 L 0.00 798.08 L 0.28 790.65 L 1.11 783.27 L 2.47 775.91 L 4.38 768.56 L 6.86 761.19 L 9.93 753.80 L 13.36 746.80 L 17.33 739.80 L 21.84 732.80 L 26.93 725.77 L 32.63 718.71 L 38.97 711.62 L 46.69 703.82 L 55.20 696.03 L 64.56 688.26 L 74.82 680.49 L 86.02 672.74 L 97.10 665.69 L 109.00 658.72 L 121.74 651.84 L 135.38 645.04 L 149.96 638.33 L 164.39 632.21 L 179.44 626.30 L 195.12 620.62 L 211.45 615.18 L 227.74 610.17 L 244.55 605.43 L 261.89 600.95 L 279.77 596.73 L 297.60 592.92 L 315.83 589.40 L 334.48 586.17 L 353.55 583.25 L 372.57 580.69 L 391.89 578.46 L 411.50 576.55 L 431.42 574.97 L 457.96 573.42 L 484.81 572.48 L 512.00 572.16 L 539.18 572.48 L 566.04 573.42 L 592.58 574.97 L 612.50 576.55 L 632.11 578.46 L 651.43 580.69 L 670.45 583.25 L 689.52 586.17 L 708.17 589.40 L 726.40 592.92 L 744.23 596.73 L 762.11 600.95 L 779.45 605.43 L 796.26 610.17 L 812.55 615.18 L 828.88 620.62 L 844.56 626.30 L 859.61 632.21 L 874.04 638.33 L 888.62 645.04 L 902.26 651.84 L 915.00 658.72 L 926.90 665.69 L 937.98 672.74 L 949.18 680.49 L 959.44 688.26 L 968.80 696.03 L 977.31 703.82 L 985.03 711.62 L 991.37 718.71 L 997.07 725.77 L 1002.16 732.80 L 1006.67 739.80 L 1010.64 746.80 L 1014.07 753.80 L 1017.14 761.19 L 1019.62 768.56 L 1021.53 775.91 L 1022.89 783.27 L 1023.72 790.65 L 1024.00 798.08 Z" fill="url(#linear-gradient)" fill-rule="nonzero" group-id="1,2" id="椭圆_1" node-id="32" stroke="none" target-height="451.84393" target-width="1024" target-x="0" target-y="572.15704"/><path d="M 211.22 604.24 L 219.24 604.24 L 219.24 671.08 L 211.22 671.08 Z" fill="#c5c5c5" fill-rule="nonzero" group-id="1,3,9" id="矩形_4" node-id="34" stroke="none" target-height="66.841" target-width="8.020996" target-x="211.21701" target-y="604.24"/><path d="M 215.47 496.83 L 217.81 499.50 L 223.85 506.71 L 232.10 517.20 L 236.56 523.23 L 241.10 529.75 L 245.43 536.43 L 249.35 543.10 L 252.80 549.82 L 255.39 556.02 L 256.72 560.21 L 257.47 563.94 L 257.74 567.28 L 257.50 571.67 L 256.86 575.86 L 255.83 579.87 L 254.41 583.73 L 252.61 587.45 L 250.51 590.92 L 248.09 594.16 L 245.35 597.17 L 242.34 599.90 L 239.11 602.32 L 235.64 604.43 L 231.92 606.23 L 228.06 607.65 L 224.04 608.68 L 219.85 609.31 L 215.47 609.55 L 211.08 609.31 L 206.89 608.68 L 202.87 607.65 L 199.01 606.23 L 195.29 604.43 L 191.82 602.32 L 188.59 599.90 L 185.58 597.17 L 182.84 594.16 L 180.42 590.92 L 178.32 587.45 L 176.52 583.73 L 175.10 579.87 L 174.07 575.86 L 173.43 571.67 L 173.19 567.28 L 173.46 563.94 L 174.21 560.21 L 175.54 556.02 L 178.13 549.82 L 181.58 543.10 L 185.50 536.43 L 189.83 529.75 L 194.37 523.23 L 198.83 517.20 L 207.08 506.71 L 213.12 499.50 L 215.47 496.83 Z" fill="url(#linear-gradient-2)" fill-rule="nonzero" group-id="1,3,10" id="路径_3" node-id="35" stroke="none" target-height="112.72" target-width="84.54001" target-x="173.195" target-y="496.827"/><path d="M 799.42 633.65 L 807.44 633.65 L 807.44 689.80 L 799.42 689.80 Z" fill="#c5c5c5" fill-rule="nonzero" group-id="1,4,11" id="矩形_4-2" node-id="37" stroke="none" target-height="56.145996" target-width="8.020996" target-x="799.41504" target-y="633.65"/><path d="M 804.58 542.40 L 806.58 544.69 L 811.74 550.85 L 818.79 559.81 L 822.59 564.96 L 826.47 570.52 L 830.17 576.23 L 833.52 581.93 L 836.47 587.67 L 838.68 592.97 L 839.81 596.54 L 840.45 599.73 L 840.68 602.58 L 840.48 606.32 L 839.93 609.90 L 839.05 613.33 L 837.84 616.63 L 835.73 620.82 L 833.16 624.63 L 830.11 628.10 L 826.64 631.15 L 822.82 633.73 L 818.63 635.83 L 815.34 637.05 L 811.91 637.93 L 808.33 638.47 L 804.58 638.67 L 800.84 638.47 L 797.26 637.93 L 793.83 637.05 L 790.53 635.83 L 786.34 633.73 L 782.53 631.15 L 779.06 628.10 L 776.01 624.63 L 773.43 620.82 L 771.33 616.63 L 770.11 613.33 L 769.23 609.90 L 768.69 606.32 L 768.49 602.58 L 768.71 599.73 L 769.36 596.54 L 770.49 592.97 L 772.70 587.67 L 775.64 581.93 L 778.99 576.23 L 782.70 570.52 L 786.57 564.96 L 790.38 559.81 L 797.43 550.85 L 802.58 544.69 L 804.58 542.40 Z" fill="url(#linear-gradient-2)" fill-rule="nonzero" group-id="1,4,12" id="路径_3-2" node-id="38" stroke="none" target-height="96.26703" target-width="72.18799" target-x="768.489" target-y="542.404"/><path d="M 881.07 677.82 L 886.37 677.82 L 886.37 709.62 L 881.07 709.62 Z" fill="#c5c5c5" fill-rule="nonzero" group-id="1,5,13" id="矩形_4-3" node-id="40" stroke="none" target-height="31.796997" target-width="5.299011" target-x="881.07306" target-y="677.82104"/><path d="M 884.55 625.88 L 886.06 627.61 L 889.83 632.18 L 894.74 638.63 L 897.26 642.27 L 899.64 646.03 L 901.77 649.85 L 903.41 653.41 L 904.26 655.83 L 904.75 657.96 L 904.92 659.83 L 904.57 663.55 L 903.65 666.96 L 902.14 670.11 L 900.12 672.97 L 897.69 675.40 L 894.83 677.42 L 891.68 678.93 L 888.27 679.86 L 884.55 680.20 L 880.83 679.86 L 877.43 678.93 L 874.27 677.42 L 871.41 675.40 L 868.99 672.97 L 866.96 670.11 L 865.46 666.96 L 864.53 663.55 L 864.18 659.83 L 864.35 657.96 L 864.84 655.83 L 865.69 653.41 L 867.33 649.85 L 869.46 646.03 L 871.85 642.27 L 874.37 638.63 L 879.27 632.18 L 883.04 627.61 L 884.55 625.88 Z" fill="url(#linear-gradient-2)" fill-rule="nonzero" group-id="1,5,14" id="路径_3-3" node-id="41" stroke="none" target-height="54.325012" target-width="40.73999" target-x="864.181" target-y="625.87805"/><path d="M 295.07 332.90 L 295.07 621.21 L 498.07 572.18 L 498.07 298.58 Z" fill="#d9d7d7" fill-rule="nonzero" group-id="1,6,15" id="路径_31" node-id="43" stroke="none" target-height="322.63004" target-width="203" target-x="295.06598" target-y="298.58"/><path d="M 719.69 615.34 L 722.55 335.26 L 497.08 298.56 L 497.08 570.20 Z" fill="url(#linear-gradient-5)" fill-rule="nonzero" group-id="1,6,16" id="路径_32" node-id="44" stroke="none" target-height="316.77197" target-width="225.47504" target-x="497.078" target-y="298.56396"/><path d="M 295.10 332.91 L 295.06 623.12 L 516.69 689.81 L 516.69 403.46 Z" fill="url(#linear-gradient-6)" fill-rule="nonzero" group-id="1,6,17" id="路径_33" node-id="45" stroke="none" target-height="356.8971" target-width="221.625" target-x="295.06403" target-y="332.90894"/><path d="M 722.62 620.17 L 516.23 689.73 L 516.65 403.47 L 722.64 335.25 Z" fill="url(#linear-gradient-7)" fill-rule="nonzero" group-id="1,6,18" id="路径_34" node-id="46" stroke="none" target-height="354.4779" target-width="206.414" target-x="516.225" target-y="335.24902"/><path d="M 295.19 332.97 L 235.69 398.89 L 462.66 483.04 L 516.70 403.52 Z" fill="url(#linear-gradient-8)" fill-opacity="0.51" fill-rule="nonzero" group-id="1,6,19" id="路径_35" node-id="47" stroke="none" target-height="150.068" target-width="281.01398" target-x="235.68701" target-y="332.97107"/><path d="M 516.21 403.24 L 581.66 477.12 L 768.49 408.41 L 722.90 335.27 Z" fill="url(#linear-gradient-9)" fill-opacity="0.59" fill-rule="nonzero" group-id="1,6,20" id="路径_36" node-id="48" stroke="none" target-height="141.849" target-width="252.27899" target-x="516.211" target-y="335.27002"/><path d="M 589.97 216.67 L 557.61 180.27 L 692.51 169.94 L 638.24 272.01 L 596.96 223.44 L 657.98 187.94 Z M 594.60 232.38 L 586.09 260.23 L 608.38 248.16 Z" fill="url(#linear-gradient-10)" fill-rule="nonzero" group-id="1,7" id="发布色块_1_" node-id="49" stroke="none" target-height="102.07175" target-width="134.90454" target-x="557.6063" target-y="169.94263"/><path d="M 566.00 246.92 L 562.22 247.96 L 552.17 250.98 L 537.85 255.81 L 529.81 258.80 L 521.22 262.26 L 512.66 266.05 L 504.26 270.19 L 496.18 274.70 L 488.94 279.40 L 484.40 282.84 L 480.52 286.28 L 477.23 289.74" fill="none" group-id="1,8" id="路径_37" node-id="50" stroke="#afafaf" stroke-dasharray="8 2" stroke-linecap="butt" stroke-width="3" target-height="42.822998" target-width="88.77002" target-x="477.232" target-y="246.92004"/></g></svg>