<svg t="1693557698551" class="icon" viewBox="0 0 1024 1024" version="1.1" xmlns="http://www.w3.org/2000/svg" p-id="960" width="30" height="30"><path d="M346.29910124 180.59820247a55.23363335 55.23363335 0 0 0-55.23363336-55.23363335H235.83183582a55.23363335 55.23363335 0 0 0-55.23363335 55.23363335v718.03722841a55.23363335 55.23363335 0 0 0 55.23363335 55.23363206h55.23363206a55.23363335 55.23363335 0 0 0 55.23363336-55.23363206V180.59820247z m497.10269629 0a55.23363335 55.23363335 0 0 0-55.23363335-55.23363335h-55.23363206a55.23363335 55.23363335 0 0 0-55.23363336 55.23363335v718.03722841a55.23363335 55.23363335 0 0 0 55.23363336 55.23363206h55.23363206a55.23363335 55.23363335 0 0 0 55.23363335-55.23363206V180.59820247z" fill="#dbeeff" p-id="961"></path></svg>