<svg t="1693551224281" class="icon" viewBox="0 0 1024 1024" version="1.1" xmlns="http://www.w3.org/2000/svg" p-id="960" width="30" height="30"><path d="M817.47549676 468.45068258l0.02023599-0.02023601L291.18803856 107.53325989l-0.16442003 0.15514454C280.11879331 97.33333177 265.32522979 90.96058933 249.0206905 90.96058933c-33.53910452 0-60.72654638 26.91846771-60.72654639 60.14728237 0 18.24975138-0.78668565 53.98111943 0 53.20623886l0 307.69094781 0 323.88081542c0 0.2681304 0 20.80458189 0 37.02564674 0 33.20857863 27.18744187 60.12788928 60.72654639 60.12788929 16.36609103 0 31.22205002-6.41405732 42.12603229-16.86356653l0.04131574 0.02107974 526.30769505-360.88622536-0.02023599-0.03204106c11.44192977-10.9343367 18.58027725-26.2759661 18.58027723-43.28455956 0-0.04131578 0-0.07251306 0-0.12394723 0-0.04131578 0-0.09190611 0-0.12310426C836.05577482 494.73676707 828.91742654 479.38417633 817.47549676 468.45068258z" fill="#dbeeff" p-id="961"></path></svg>