<svg t="1693977905486" class="icon" viewBox="0 0 1024 1024" version="1.1" xmlns="http://www.w3.org/2000/svg" p-id="1020" width="30" height="30"><path d="M192 477.86666667a273.06666667 273.06666667 0 1 1 546.13333333 0 273.06666667 273.06666667 0 0 1-546.13333333 0m673.8944 386.6624l-152.74666667-152.71253334A339.69493333 339.69493333 0 0 0 806.4 477.86666667c0-188.5184-152.81493333-341.33333333-341.33333334-341.33333334S123.73333333 289.34826667 123.73333333 477.86666667s152.81493333 341.33333333 341.33333333 341.33333333a339.21706667 339.21706667 0 0 0 196.43733334-62.49813333l156.09173333 156.12586666c13.34613333 13.312 34.95253333 13.312 48.29866667 0 13.312-13.34613333 13.312-34.95253333 0-48.29866666" fill="#c1daff" p-id="1021"></path></svg>