<svg t="1701854337192" class="icon" viewBox="0 0 1024 1024" version="1.1" xmlns="http://www.w3.org/2000/svg" p-id="1472" width="20" height="20"><path d="M696.2 615.1c-35.4 0-67.4 14.1-91 36.8L354 526.3c0.7-5.3 1.1-10.7 1.1-16.2s-0.4-10.9-1.1-16.2l251.2-125.6c23.6 22.7 55.6 36.8 91 36.8 72.5 0 131.2-58.7 131.2-131.2s-58.7-131.2-131.2-131.2S565 201.5 565 273.9c0 5.5 0.4 10.9 1.1 16.2L314.9 415.7c-23.6-22.7-55.6-36.8-91-36.8-72.5 0-131.2 58.7-131.2 131.2s58.7 131.2 131.2 131.2c35.4 0 67.4-14.1 91-36.8l251.2 125.6c-0.7 5.3-1.1 10.7-1.1 16.2 0 72.5 58.7 131.2 131.2 131.2s131.2-58.7 131.2-131.2-58.8-131.2-131.2-131.2z" fill="#9aceff" p-id="1473"></path></svg>