<svg t="1710419130956" class="icon" viewBox="0 0 1024 1024" version="1.1" xmlns="http://www.w3.org/2000/svg" p-id="1684" width="30" height="30"><path d="M843.40179753 208.2150185v607.569963a27.61681602 27.61681602 0 0 1-27.61681603 27.61681603h-55.23363335a27.61681602 27.61681602 0 0 1-27.61681603-27.61681603v-607.569963a27.61681602 27.61681602 0 0 1 27.61681603-27.61681603h55.23363335a27.61681602 27.61681602 0 0 1 27.61681603 27.61681603zM251.84958894 175.07483874a40.32055247 40.32055247 0 0 0-44.18690591 0l-6.62803595 3.31401797a41.97756145 41.97756145 0 0 0-20.43644461 33.69251653v599.28491678a42.52989692 42.52989692 0 0 0 20.43644461 35.90186225l6.62803595 3.31401798a41.42522469 41.42522469 0 0 0 44.18690591 0l407.0718742-286.1102194a41.42522469 41.42522469 0 0 0 17.6747634-33.69251522v-34.24485328a41.42522469 41.42522469 0 0 0-17.6747634-33.69251521z" fill="#dbeeff" p-id="1685"></path></svg>