<svg t="1710419198407" class="icon" viewBox="0 0 1024 1024" version="1.1" xmlns="http://www.w3.org/2000/svg" p-id="1837" width="30" height="30"><path d="M291.06546788 815.7849815a27.61681602 27.61681602 0 0 1-27.61681603 27.61681603h-55.23363335a27.61681602 27.61681602 0 0 1-27.61681603-27.61681603v-607.569963a27.61681602 27.61681602 0 0 1 27.61681603-27.61681603h55.23363335a27.61681602 27.61681602 0 0 1 27.61681603 27.61681603zM843.40179753 212.08137324a42.52989692 42.52989692 0 0 0-20.43644461-35.90186097l-6.62803595-3.31401798a40.32055247 40.32055247 0 0 0-44.18690591 0l-407.0718742 287.7672271a41.42522469 41.42522469 0 0 0-17.6747634 33.69251651v34.24485197a41.42522469 41.42522469 0 0 0 17.6747634 33.69251652l407.0718742 286.11021811a40.32055247 40.32055247 0 0 0 44.18690591 0l6.62803595-3.31401798a41.97756145 41.97756145 0 0 0 20.43644461-35.90186097z" fill="#dbeeff" p-id="1838"></path></svg>