<svg t="1695456636122" class="icon" viewBox="0 0 1024 1024" version="1.1" xmlns="http://www.w3.org/2000/svg" p-id="1226" width="12.5" height="12.5"><path d="M258.048 899.072l0-81.92 0-129.024 0-156.672 0-159.74399999q0-76.80000001-0.512-141.31200001t-0.512-100.352q0-24.57599999 11.776-40.96t29.696-22.016 39.424 0 39.936 24.064q37.88800001 38.912 81.91999999 81.408t90.62400001 85.504 94.20799999 86.016 91.64800001 82.944q19.456 17.408 29.184 43.00799999t8.704 53.24800001-11.776 54.272-32.256 45.056q-39.936 34.816-79.36 70.144t-80.896 72.704-87.04 78.336-96.76799999 87.04q-22.528 20.48-45.56800001 27.13599999t-41.472 2.04800001-29.696-20.48-11.264-40.448z" fill="#8a8a8a" p-id="1227"></path></svg>